<svg width="20" height="20" viewBox="0 0 20 20" fill="none" xmlns="http://www.w3.org/2000/svg">
<path d="M1.6665 15.8334C1.6665 17.25 2.74984 18.3334 4.1665 18.3334H15.8332C17.2498 18.3334 18.3332 17.25 18.3332 15.8334V9.16669H1.6665V15.8334ZM15.8332 3.33335H14.1665V2.50002C14.1665 2.00002 13.8332 1.66669 13.3332 1.66669C12.8332 1.66669 12.4998 2.00002 12.4998 2.50002V3.33335H7.49984V2.50002C7.49984 2.00002 7.1665 1.66669 6.6665 1.66669C6.1665 1.66669 5.83317 2.00002 5.83317 2.50002V3.33335H4.1665C2.74984 3.33335 1.6665 4.41669 1.6665 5.83335V7.50002H18.3332V5.83335C18.3332 4.41669 17.2498 3.33335 15.8332 3.33335Z" fill="#9F9F9F"/>
</svg>
