<svg width="19" height="19" viewBox="0 0 19 19" fill="none" xmlns="http://www.w3.org/2000/svg">
<path d="M9.89713 18.968C9.36713 18.97 8.85713 18.758 8.48313 18.382L0.646127 10.547C0.4418 10.3434 0.284121 10.0978 0.183982 9.82723C0.0838429 9.55668 0.043632 9.26762 0.0661272 8.98001L0.566127 2.41401C0.60067 1.93599 0.806654 1.48652 1.14619 1.14827C1.48573 0.810017 1.93598 0.60574 2.41413 0.573012L8.98013 0.0730116C9.03213 0.0620116 9.08313 0.0620117 9.13513 0.0620117C9.66513 0.0620117 10.1721 0.272012 10.5451 0.648012L18.3831 8.48201C18.5689 8.66774 18.7163 8.88825 18.8169 9.13096C18.9174 9.37366 18.9692 9.6338 18.9692 9.89651C18.9692 10.1592 18.9174 10.4194 18.8169 10.6621C18.7163 10.9048 18.5689 11.1253 18.3831 11.311L11.3111 18.382C11.1259 18.5683 10.9055 18.716 10.6628 18.8166C10.4201 18.9172 10.1599 18.9687 9.89713 18.968ZM5.65413 3.65401C5.32524 3.65411 5.00145 3.73531 4.71143 3.89042C4.42142 4.04554 4.17413 4.26978 3.99148 4.54329C3.80883 4.8168 3.69644 5.13113 3.66428 5.45845C3.63212 5.78576 3.68118 6.11595 3.80711 6.41978C3.93304 6.72361 4.13195 6.99169 4.38623 7.20029C4.6405 7.40888 4.9423 7.55155 5.26488 7.61565C5.58747 7.67976 5.92088 7.66332 6.23559 7.56779C6.5503 7.47227 6.8366 7.30061 7.06913 7.06801L7.07613 7.06201L7.08313 7.05501L7.07513 7.06201C7.35311 6.78158 7.54187 6.42513 7.6176 6.03759C7.69333 5.65006 7.65265 5.24877 7.50069 4.88432C7.34873 4.51986 7.09228 4.20855 6.76367 3.98961C6.43506 3.77066 6.04899 3.65389 5.65413 3.65401Z" fill="#9F9F9F"/>
</svg>
